<svg version="1.1" xmlns="http://www.w3.org/2000/svg" viewBox="0 0 172 172">
    <g fill="#6563ff" fill-rule="nonzero" stroke="none" stroke-width="1" stroke-linecap="butt"
       stroke-linejoin="miter"
       stroke-miterlimit="10" stroke-dasharray="" stroke-dashoffset="0" font-family="none">
        <g fill="#6563ff">
            <path d="M78.83333,129c63.06667,-40.13333 68.8,-82.41667 71.66667,-101.05c0.71667,-3.58333 -2.86667,-7.16667 -6.45,-6.45c-18.63333,2.86667 -60.91667,8.6 -101.05,71.66667z"
                  opacity="0.3"/>
            <path d="M82.41667,134.73333l-7.88333,-12.18333c58.76667,-36.55 65.93333,-75.25 68.8,-93.88333c-18.63333,2.86667 -57.33333,10.03333 -94.6,68.08333l-12.18333,-7.88333c42.28333,-65.21667 87.43333,-71.66667 106.06667,-74.53333c4.3,-0.71667 7.88333,0.71667 10.75,3.58333c2.86667,2.86667 4.3,7.16667 3.58333,10.75c-2.15,19.35 -8.6,64.5 -74.53333,106.06667z"/>
            <path d="M107.5,57.33333c-3.95804,0 -7.16667,3.20863 -7.16667,7.16667c0,3.95804 3.20863,7.16667 7.16667,7.16667c3.95804,0 7.16667,-3.20863 7.16667,-7.16667c0,-3.95804 -3.20863,-7.16667 -7.16667,-7.16667zM86,78.83333c-3.95804,0 -7.16667,3.20863 -7.16667,7.16667c0,3.95804 3.20863,7.16667 7.16667,7.16667c3.95804,0 7.16667,-3.20863 7.16667,-7.16667c0,-3.95804 -3.20863,-7.16667 -7.16667,-7.16667zM28.66667,143.33333l1.43333,-10.03333c1.43333,-7.88333 5.73333,-27.23333 12.18333,-33.68333l10.03333,10.03333c-1.43333,1.43333 -3.58333,7.88333 -5.73333,15.76667c7.88333,-2.15 14.33333,-4.3 15.76667,-5.73333l10.03333,10.03333c-6.45,6.45 -25.8,10.75 -33.68333,12.18333z"/>
            <path d="M38.11732,98.41264l10.13502,-10.13537l35.98058,35.97932l-10.13502,10.13537z"/>
            <path d="M45.86667,100.33333h-22.21667c-3.58333,0 -7.16667,-2.15 -8.6,-5.73333c-1.43333,-3.58333 -0.71667,-7.16667 2.15,-10.03333l19.35,-20.06667h20.78333zM80.98333,157.66667c-1.43333,0 -2.15,0 -3.58333,-0.71667c-3.58333,-1.43333 -5.73333,-5.01667 -5.73333,-8.6v-23.65l35.83333,-10.03333v22.21667l-20.06667,18.63333c-1.43333,1.43333 -4.3,2.15 -6.45,2.15z"/>
        </g>
    </g>
</svg>